<svg id="Capa_1" enable-background="new 0 0 512 512" height="512" viewBox="0 0 512 512" width="512" xmlns="http://www.w3.org/2000/svg"><g><path d="m231.599 286.5c-5.099-2.401-11.1-1.8-15.599 1.5-20.4 15.601-51.601 15.601-72.001 0-4.499-3.3-10.499-3.9-15.599-1.5-5.1 2.7-8.4 7.8-8.4 13.5v33.3l-1.381 64.2 61.381 7.5 61.381-7.5-1.381-64.2v-33.3c0-5.7-3.3-10.8-8.401-13.5z" fill="#fb9"/><path d="m241.381 397.5-1.381-64.2v-33.3c0-5.7-3.3-10.8-8.401-13.5-5.099-2.401-11.1-1.8-15.599 1.5-10.199 7.8-23.101 11.7-36 11.7v105.3z" fill="#ff9680"/><path d="m232.5 512h-105l-7.916-76.168 60.416-30.832 56.25 22.5z" fill="#80a3ff"/><path d="m232.5 512 3.75-84.5-56.25-22.5v107z" fill="#5c75e6"/><g><path d="m105 240h-30c-24.814 0-45-20.186-45-45s20.186-45 45-45h30c8.291 0 15 6.709 15 15v60c0 8.291-6.709 15-15 15z" fill="#fb9"/></g><g><path d="m285 240h-30c-8.291 0-15-6.709-15-15v-60c0-8.291 6.709-15 15-15h30c24.814 0 45 20.186 45 45s-20.186 45-45 45z" fill="#ff9680"/></g><g><path d="m180 330c-49.5 0-90-39.735-90-90v-105c0-8.291 6.709-15 15-15 8.276 0 15-6.724 15-15v-30c0-8.291 6.709-15 15-15h90c8.291 0 15 6.709 15 15v30c0 8.276 6.724 15 15 15 8.291 0 15 6.709 15 15v105c0 50.627-41.151 90-90 90z" fill="#ffd9b3"/></g><g id="Job_Applicant_1_"><g><path d="m300 360v137c0 8.399-6.599 15-15 15h-52.5l-52.5-107 60-71.7 48.6 12.299c6.601 1.501 11.4 7.5 11.4 14.401z" fill="#e2dff4"/></g><path d="m180 405-52.5 107h-112.5c-8.401 0-15-6.601-15-15v-122c0-6.901 4.799-12.9 11.4-14.401l108.6-27.299z" fill="#f3f5f9"/></g><path d="m135 90v30c0 16.5-13.5 30-30 30h-30v-60c0-11.4 6.301-21.301 15.901-26.4 9 15 22.5 26.4 44.099 26.4z" fill="#ffb44b"/><g><path d="m512 384.3v112.7c0 8.399-6.599 15-15 15h-212c-8.401 0-15-6.601-15-15v-112.7c1.713 1.998 240.287 1.998 242 0z" fill="#bc8173"/></g><path d="m497 512c8.401 0 15-6.601 15-15v-112.7c-.855.998-61.428 1.498-121 1.498v126.202z" fill="#865240"/><g><g><g><path d="m437 360c-8.291 0-15-6.709-15-15v-45h-62v45c0 8.291-6.709 15-15 15s-15-6.709-15-15v-60c0-8.291 6.709-15 15-15h92c8.291 0 15 6.709 15 15v60c0 8.291-6.709 15-15 15z" fill="#4d5680"/></g></g></g><g><path d="m391 450c-8.291 0-15-6.709-15-15v-30c0-8.291 6.709-15 15-15s15 6.709 15 15v30c0 8.291-6.709 15-15 15z" fill="#fff060"/></g><path d="m437 270h-46v30h31v45c0 8.291 6.709 15 15 15s15-6.709 15-15v-60c0-8.291-6.709-15-15-15z" fill="#3d3d66"/><path d="m406 435v-30c0-8.291-6.709-15-15-15v60c8.291 0 15-6.709 15-15z" fill="#ffd830"/><path d="m497 330h-212c-8.401 0-15 6.599-15 15v39.3c10.8 12.599 27.001 20.7 45 20.7h152c17.999 0 34.2-8.101 45-20.7v-39.3c0-8.401-6.599-15-15-15z" fill="#865240"/><path d="m497 330h-106v75h76c17.999 0 34.2-8.101 45-20.7v-39.3c0-8.401-6.599-15-15-15z" fill="#5c381f"/><path d="m255 120c-8.276 0-15-6.724-15-15v-30c0-8.291-6.709-15-15-15h-45v270c48.849 0 90-39.373 90-90v-105c0-8.291-6.709-15-15-15z" fill="#fb9"/><path d="m255 60c16.5 0 30 13.5 30 30v60h-30c-16.5 0-18-54.5-18-71l-56 11h-46c-21.599 0-35.099-11.4-44.099-26.4-7.597-12.613-11.565-27.692-13.636-40.001-1.764-10.475 7.202-19.629 17.594-17.43 20.897 4.422 54.655 7.66 83.871-3.164 5.004-1.854 10.355-3.005 16.27-3.005 32.999 0 60 26.999 60 60z" fill="#ffd830"/><path d="m255 60c0-33.001-27.001-60-60-60-5.433 0-10.351 1.051-15 2.646v87.354h45v30c0 16.5 13.5 30 30 30h30v-60c0-16.5-13.5-30-30-30z" fill="#ffb44b"/></g></svg>