<?xml version="1.0" encoding="iso-8859-1"?>
<!-- Generator: Adobe Illustrator 16.0.0, SVG Export Plug-In . SVG Version: 6.00 Build 0)  -->
<!DOCTYPE svg PUBLIC "-//W3C//DTD SVG 1.1//EN" "http://www.w3.org/Graphics/SVG/1.1/DTD/svg11.dtd">
<svg version="1.1" id="Capa_1" xmlns="http://www.w3.org/2000/svg" xmlns:xlink="http://www.w3.org/1999/xlink" x="0px" y="0px"
	 width="95.635px" height="95.635px" viewBox="0 0 95.635 95.635" style="enable-background:new 0 0 95.635 95.635;"
	 xml:space="preserve">
<g>
	<g id="&#x5716;&#x5C64;_x0020_1">
		<path d="M0.017,54.676l9.868-14.383l9.602,0.019c1.309,0,1.86-0.379,2.467-1.252l7.855-11.404c2.524-3.681,3.206-3.34,5.313-3.34
			h24.725l3.662,5.029H42.863c-2.048-0.051-2.494,0.549-3.11,1.518l-6.699,9.715l4.972,0.005c1.032,0.051,1.291-0.65,1.652-1.086
			l4.876-6.983c0.94-1.411,2.853-1.213,3.453-1.233l20.246-0.021l5.351,7.744H47.969c-0.988,0-2.145,0.304-3.17,1.575l-8.672,12.372
			c-0.91,1.025-1.536,1.404-3.301,1.727H0h0.017V54.676z M95.615,40.958l-9.866,14.366l-9.603-0.001
			c-1.309,0-1.859,0.379-2.468,1.252l-7.854,11.404c-2.523,3.681-3.207,3.34-5.312,3.34H35.787l-3.662-5.029H52.77
			c2.068,0.133,2.656-0.626,3.112-1.518l6.697-9.715l-4.97-0.038c-0.931-0.114-1.293,0.683-1.652,1.139l-4.876,6.983
			c-0.904,1.354-3.613,1.208-3.453,1.232l-20.247,0.038l-5.352-7.761h25.636c0.986,0,2.146-0.303,3.169-1.575l8.672-12.372
			c0.911-1.025,1.537-1.405,3.303-1.727h32.826L95.615,40.958z"/>
	</g>
</g>
<g>
</g>
<g>
</g>
<g>
</g>
<g>
</g>
<g>
</g>
<g>
</g>
<g>
</g>
<g>
</g>
<g>
</g>
<g>
</g>
<g>
</g>
<g>
</g>
<g>
</g>
<g>
</g>
<g>
</g>
</svg>
