<svg id="Layer_1" enable-background="new 0 0 128 128" height="512" viewBox="0 0 128 128" width="512" xmlns="http://www.w3.org/2000/svg"><g><path d="m108.879 18.039h-9v-9c0-1.654-1.346-3-3-3h-74.758c-1.654 0-3 1.346-3 3v100.923c0 1.654 1.346 3 3 3h9v9c0 1.654 1.346 3 3 3h60.907c.266 0 .52-.105.707-.293l15.851-15.847c.188-.188.293-.442.293-.707v-87.076c0-1.655-1.346-3-3-3z" fill="#e6e7e8"/><g><path d="m28.121 17.039c0-1.104.895-2 2-2h64.758v-10c0-1.104-.895-2-2-2h-74.758c-1.105 0-2 .896-2 2v100.923c0 1.104.895 2 2 2h10z" fill="#0089ef"/><g><g><path d="m91.028 119.961h-60.907c-1.105 0-2-.896-2-2v-100.922c0-1.105.895-2 2-2h74.758c1.104 0 2 .895 2 2v87.076z" fill="#d4fbff"/><path d="m57.458 15.039h-27.337c-1.105 0-2 .896-2 2v100.922c0 1.104.895 2 2 2h27.337z" fill="#6dc9f7"/><circle cx="43.276" cy="41" fill="#fa759e" r="11"/><g><path d="m35.437 48.711c1.996 2.028 4.769 3.289 7.839 3.289s5.844-1.26 7.839-3.289v-2.46c0-2.209-1.791-4-4-4h-7.678c-2.209 0-4 1.791-4 4z" fill="#d4fbff"/><g fill="#0089ef"><path d="m43.276 42.974c-.731 0-1.418-.169-2.042-.453l1.194 3.062h1.695l1.194-3.061c-.622.284-1.31.452-2.041.452z"/><path d="m43.276 52c.417 0 .827-.028 1.232-.073l-.384-6.344h-1.695l-.384 6.344c.404.045.814.073 1.231.073z"/></g><path d="m48.201 38.07c0 2.708-2.205 4.904-4.925 4.904s-4.925-2.196-4.925-4.904 2.205-4.904 4.925-4.904 4.925 2.196 4.925 4.904z" fill="#fff"/></g><g><path d="m30.121 119.961 60.908-.002v-2.998h-60.908c-1.104 0-2-.896-2-2v3c0 1.105.895 2 2 2z" fill="#fff"/></g><path d="m91.028 106.113v13.849l15.85-15.847-13.85-.002c-1.104 0-2 .895-2 2z" fill="#6dc9f7"/><g fill="#3a2c60"><path d="m16.121 42.693c.553 0 1-.448 1-1v-11.026c0-.552-.447-1-1-1s-1 .448-1 1v11.027c0 .552.447.999 1 .999z"/><path d="m74.057 39.062c2.639 0 5.071-1.37 6.508-3.664.293-.468.151-1.085-.317-1.378-.467-.291-1.085-.151-1.378.317-1.068 1.707-2.867 2.725-4.813 2.725-3.167 0-5.744-2.691-5.744-6s2.577-6 5.744-6c1.983 0 3.801 1.049 4.861 2.806.286.473.9.624 1.373.339.473-.286.625-.9.34-1.373-1.427-2.361-3.884-3.771-6.574-3.771-4.271 0-7.744 3.589-7.744 8s3.473 7.999 7.744 7.999z"/><path d="m88.257 38.484c.164.353.518.578.906.578s.742-.225.906-.578l6.524-14c.233-.5.017-1.096-.483-1.329s-1.095-.017-1.329.484l-5.618 12.055-5.619-12.055c-.233-.5-.826-.72-1.329-.484-.5.233-.717.828-.483 1.329z"/><path d="m64.374 69.348h34.252c.553 0 1-.448 1-1s-.447-1-1-1h-34.252c-.553 0-1 .448-1 1s.447 1 1 1z"/><path d="m64.374 79.348h34.252c.553 0 1-.448 1-1s-.447-1-1-1h-34.252c-.553 0-1 .448-1 1s.447 1 1 1z"/><path d="m64.374 89.348h34.252c.553 0 1-.448 1-1s-.447-1-1-1h-34.252c-.553 0-1 .448-1 1s.447 1 1 1z"/><path d="m98.626 99.348c.553 0 1-.448 1-1s-.447-1-1-1h-34.252c-.553 0-1 .448-1 1s.447 1 1 1z"/><path d="m64.374 59.348h34.252c.553 0 1-.448 1-1s-.447-1-1-1h-34.252c-.553 0-1 .448-1 1s.447 1 1 1z"/><path d="m64.374 49.348h34.252c.553 0 1-.448 1-1s-.447-1-1-1h-34.252c-.553 0-1 .448-1 1s.447 1 1 1z"/><path d="m53.402 67.348h-20.252c-.553 0-1 .448-1 1s.447 1 1 1h20.252c.553 0 1-.448 1-1s-.447-1-1-1z"/><path d="m53.402 77.348h-20.252c-.553 0-1 .448-1 1s.447 1 1 1h20.252c.553 0 1-.448 1-1s-.447-1-1-1z"/><path d="m53.402 87.348h-20.252c-.553 0-1 .448-1 1s.447 1 1 1h20.252c.553 0 1-.448 1-1s-.447-1-1-1z"/><path d="m53.402 97.348h-20.252c-.553 0-1 .448-1 1s.447 1 1 1h20.252c.553 0 1-.448 1-1s-.447-1-1-1z"/><path d="m53.402 57.348h-20.252c-.553 0-1 .448-1 1s.447 1 1 1h20.252c.553 0 1-.448 1-1s-.447-1-1-1z"/><path d="m104.879 14.039h-9v-9c0-1.654-1.346-3-3-3h-74.758c-1.654 0-3 1.346-3 3v20.794c0 .552.447 1 1 1s1-.448 1-1v-20.794c0-.551.448-1 1-1h74.758c.552 0 1 .449 1 1v9h-63.758c-1.654 0-3 1.346-3 3v89.922h-9c-.552 0-1-.449-1-1v-59.378c0-.552-.447-1-1-1s-1 .448-1 1v59.378c0 1.654 1.346 3 3 3h9v9c0 1.654 1.346 3 3 3h60.907c.266 0 .52-.105.707-.293l15.851-15.847c.188-.188.293-.442.293-.707v-87.075c0-1.655-1.346-3-3-3zm-75.758 103.922v-100.922c0-.551.448-1 1-1h74.758c.552 0 1 .449 1 1v86.076l-12.851-.002c-1.654 0-3 1.346-3 3v12.849h-59.907c-.552-.001-1-.449-1-1.001zm75.343-12.847-12.436 12.433v-11.435c0-.551.448-1 1-1z"/><path d="m43.276 29c-6.617 0-12 5.383-12 12s5.383 12 12 12 12-5.383 12-12-5.382-12-12-12zm-6.839 19.276v-2.026c0-1.654 1.346-3 3-3h1c.844.461 1.811.724 2.839.724s1.995-.263 2.839-.724h1c1.654 0 3 1.346 3 3v2.025c-1.79 1.685-4.193 2.725-6.839 2.725s-5.048-1.04-6.839-2.724zm6.839-6.301c-2.164 0-3.925-1.751-3.925-3.904 0-2.152 1.761-3.904 3.925-3.904s3.925 1.751 3.925 3.904c0 2.152-1.761 3.904-3.925 3.904zm8.79 3.79c-.213-2.167-1.793-3.935-3.88-4.393.641-.943 1.016-2.08 1.016-3.302 0-3.255-2.658-5.904-5.925-5.904s-5.925 2.648-5.925 5.904c0 1.222.375 2.359 1.016 3.302-2.087.458-3.667 2.225-3.88 4.393-.771-1.417-1.21-3.041-1.21-4.765 0-5.514 4.486-10 10-10s10 4.486 10 10c-.002 1.724-.44 3.348-1.212 4.765z"/></g></g></g></g></g></svg>