<svg id="Capa_1" enable-background="new 0 0 512 512" height="512" viewBox="0 0 512 512" width="512" xmlns="http://www.w3.org/2000/svg"><g><g><path d="m504.5 73.58v308.64h-497v-308.64l260.36-11.247z" fill="#ddeafb"/><path d="m504.5 73.58v308.635c0 .003-.002.005-.005.005h-29.905c3.25 0 5.88-2.63 5.88-5.88v-308.673z" fill="#cbe2ff"/><path d="m40.65 103.75h114v114h-114z" fill="#fff9df"/><path d="m131.32 103.75h23.33v114h-23.33z" fill="#fff0ad"/><path d="m194 103.75h147.72v198.99h-147.72z" fill="#fff9df"/><path d="m317.84 103.75h23.88v198.99h-23.88z" fill="#fff0ad"/><path d="m457 34.75 6 19.415-6 19.415h-449.5v-38.83z" fill="#0473ce"/><path d="m457 34.75h47.5v38.83h-47.5z" fill="#fe646f"/><path d="m504.5 34.75v38.83h-24.03v-32.96c0-3.24-2.63-5.87-5.88-5.87z" fill="#fd4755"/><path d="m67 130.584h25v25h-25z" fill="#0473ce"/><path d="m219.471 130.584h25v25h-25z" fill="#0473ce"/><path d="m283.29 390.71-86.54 86.54-28.41-28.42 86.53-86.54 13.33 13.33z" fill="#82aee3"/><path d="m283.29 390.71-86.54 86.54-15.161-15.167 86.611-86.463z" fill="#528fd8"/><path d="m268.2 375.61v.01l-13.33-13.33z" fill="#528fd8"/><path d="m323.56 364.85-9.3 9.29-30.97 16.56-28.41-28.41 16.56-30.97 9.3-9.3 27.73 27.73z" fill="#5a5a5a"/><path d="m323.56 364.85-9.3 9.29-30.97 16.56-15.09-15.09 30.97-16.56 9.3-9.3z" fill="#444"/><path d="m467.22 358.37c-27.93 27.92-65.6 40.16-102.06 36.7-28.45-2.69-56.16-14.92-77.94-36.7-49.71-49.71-49.71-130.3 0-180.01 21.78-21.78 49.49-34.02 77.94-36.71 36.46-3.45 74.13 8.79 102.06 36.71 49.71 49.71 49.71 130.3 0 180.01z" fill="#5a5a5a"/><path d="m467.22 358.37c-27.93 27.92-65.6 40.16-102.06 36.7 28.44-2.69 56.15-14.92 77.94-36.7 49.7-49.71 49.7-130.3 0-180.01-21.79-21.78-49.5-34.02-77.94-36.71 36.46-3.45 74.13 8.79 102.06 36.71 49.71 49.71 49.71 130.3 0 180.01z" fill="#444"/><path d="m476.48 268.36c0 54.83-44.44 99.27-99.26 99.27-3.9 0-7.76-.23-11.54-.67-49.38-5.71-87.72-47.68-87.72-98.6s38.34-92.88 87.72-98.59c3.78-.44 7.64-.67 11.54-.67 54.82 0 99.26 44.44 99.26 99.26z" fill="#82aee3"/><path d="m476.48 268.36c0 54.83-44.44 99.27-99.26 99.27-3.9 0-7.76-.23-11.54-.67 49.39-5.71 87.73-47.67 87.73-98.6 0-50.92-38.34-92.88-87.73-98.59 3.78-.44 7.64-.67 11.54-.67 54.82 0 99.26 44.44 99.26 99.26z" fill="#528fd8"/></g><g><path d="m504.5 27.251h-497c-4.142 0-7.5 3.357-7.5 7.5v347.466c0 4.143 3.358 7.5 7.5 7.5h190.5c4.142 0 7.5-3.357 7.5-7.5s-3.358-7.5-7.5-7.5h-183v-293.632h482v125.363c-6.305-12.164-14.51-23.421-24.477-33.388-52.551-52.551-138.058-52.551-190.608 0-25.457 25.457-39.477 59.304-39.477 95.305 0 9.132.906 18.124 2.668 26.877h-43.606v-183.994h132.72v1.085c0 4.143 3.358 7.5 7.5 7.5s7.5-3.357 7.5-7.5v-8.585c0-4.143-3.358-7.5-7.5-7.5h-147.72c-4.142 0-7.5 3.357-7.5 7.5v198.993c0 4.143 3.358 7.5 7.5 7.5h55.044c2.903 8.917 6.743 17.498 11.462 25.626l-11.707 21.893-85.768 85.767c-1.407 1.407-2.197 3.314-2.197 5.304s.79 3.896 2.197 5.304l28.417 28.417c1.464 1.464 3.384 2.196 5.303 2.196s3.839-.732 5.303-2.196l85.764-85.764 13.226-7.072h17.388c36.665 17.798 80.906 17.798 117.572 0h68.496c4.142 0 7.5-3.357 7.5-7.5v-347.465c0-4.143-3.358-7.5-7.5-7.5zm-222.585 336.418c-.708-.708 12.627 12.479 13.661 11.962l-10.914 5.836-20.544-20.544 5.84-10.922c3.65 4.776 7.635 9.345 11.957 13.668zm-85.163 102.974-17.811-17.811 75.934-75.934 17.811 17.811zm127.268-90.899c-39.618-23.16-66.581-59.982-66.581-107.38 0-31.994 12.459-62.074 35.083-84.697 23.351-23.352 54.024-35.027 84.698-35.027s61.347 11.676 84.698 35.027c22.623 22.623 35.082 52.703 35.082 84.697s-12.459 62.074-35.083 84.697c-35.83 35.831-92.422 45.266-137.897 22.683zm172.98-1.027h-36.953c15.279-11.949 28.024-27.211 36.953-44.436zm-482-332.466h434.5v23.834h-434.5zm449.5 23.834v-23.834h32.5v23.834z"/><path d="m317.609 298.181c2.392 0 4.939-.568 7.519-2.001 5.208-2.893 8.444-8.439 8.444-14.477v-35.312c0-4.107-3.164-7.688-7.269-7.811-4.247-.128-7.731 3.277-7.731 7.497v35.626c0 .583-.285 1.118-.725 1.362-.206.115-1.024-.302-2.026-.912-2.936-1.789-6.723-1.308-9.14 1.138-3.476 3.517-2.62 9.387 1.718 11.761 3.161 1.729 6.608 3.129 9.21 3.129z"/><path d="m429.809 238.577h-12.948c-4.142 0-7.5 3.357-7.5 7.5v44.574c0 1.995.795 3.907 2.208 5.315 1.406 1.399 3.309 2.185 5.292 2.185h.033s11.897-.053 15.176-.053c10.751 0 19.498-8.747 19.498-19.498 0-5.526-2.321-10.511-6.027-14.062 1.286-2.457 2.025-5.244 2.025-8.204-.001-9.791-7.966-17.757-17.757-17.757zm0 15c1.52 0 2.757 1.236 2.757 2.757s-1.237 2.757-2.757 2.757c-.936 0-2.682.005-4.597.012h-.85v-5.525h5.447zm2.261 29.522c-1.463 0-4.635.011-7.709.022v-9.016c.281-.001.56-.002.835-.003h6.874c2.48 0 4.498 2.018 4.498 4.498s-2.018 4.499-4.498 4.499z"/><path d="m341.68 268.364c0 16.425 13.362 29.787 29.787 29.787s29.787-13.362 29.787-29.787-13.362-29.787-29.787-29.787-29.787 13.362-29.787 29.787zm44.574 0c0 8.153-6.633 14.787-14.787 14.787s-14.787-6.634-14.787-14.787 6.633-14.787 14.787-14.787 14.787 6.634 14.787 14.787z"/><path d="m483.982 268.364c0-15.152-3.111-29.796-9.248-43.524-1.69-3.78-6.125-5.475-9.908-3.786-3.782 1.689-5.477 6.126-3.787 9.907 5.27 11.79 7.942 24.374 7.942 37.403 0 50.599-41.165 91.764-91.763 91.764s-91.763-41.165-91.763-91.764c0-50.598 41.165-91.763 91.763-91.763 25.407 0 49.04 10.149 66.544 28.577 2.854 3.004 7.601 3.126 10.603.272 3.003-2.853 3.125-7.6.273-10.603-20.365-21.439-47.86-33.247-77.42-33.247-58.87 0-106.763 47.894-106.763 106.763 0 58.87 47.894 106.764 106.763 106.764s106.764-47.893 106.764-106.763z"/><path d="m162.152 103.748c0-4.143-3.358-7.5-7.5-7.5h-113.998c-4.142 0-7.5 3.357-7.5 7.5v113.997c0 4.143 3.358 7.5 7.5 7.5h113.998c4.142 0 7.5-3.357 7.5-7.5zm-15 106.497h-98.998v-98.997h98.998z"/><path d="m67 163.084h25c4.142 0 7.5-3.357 7.5-7.5v-25c0-4.143-3.358-7.5-7.5-7.5h-25c-4.142 0-7.5 3.357-7.5 7.5v25c0 4.143 3.358 7.5 7.5 7.5zm7.5-25h10v10h-10z"/><path d="m219.471 123.084c-4.142 0-7.5 3.357-7.5 7.5v25c0 4.143 3.358 7.5 7.5 7.5h25c4.142 0 7.5-3.357 7.5-7.5v-25c0-4.143-3.358-7.5-7.5-7.5zm17.5 25h-10v-10h10z"/><path d="m154.652 238.577h-113.998c-4.142 0-7.5 3.357-7.5 7.5s3.358 7.5 7.5 7.5h113.998c4.142 0 7.5-3.357 7.5-7.5s-3.358-7.5-7.5-7.5z"/><path d="m154.652 266.909h-113.998c-4.142 0-7.5 3.357-7.5 7.5s3.358 7.5 7.5 7.5h113.998c4.142 0 7.5-3.357 7.5-7.5s-3.358-7.5-7.5-7.5z"/><path d="m162.152 302.741c0-4.143-3.358-7.5-7.5-7.5h-113.998c-4.142 0-7.5 3.357-7.5 7.5s3.358 7.5 7.5 7.5h113.998c4.142 0 7.5-3.357 7.5-7.5z"/><path d="m40.654 323.573c-4.142 0-7.5 3.357-7.5 7.5s3.358 7.5 7.5 7.5h56.999c4.142 0 7.5-3.357 7.5-7.5s-3.358-7.5-7.5-7.5z"/></g></g></svg>