<svg id="Layer_1" enable-background="new 0 0 512 512" height="512" viewBox="0 0 512 512" width="512" xmlns="http://www.w3.org/2000/svg"><g><g><g><g id="XMLID_1600_"><g id="XMLID_1618_"><g id="XMLID_1619_"><g id="XMLID_1620_"><g id="XMLID_1621_"><g id="XMLID_1622_"><g id="XMLID_1623_"><g id="XMLID_1624_"><g id="XMLID_1625_"><g id="XMLID_1895_"><g id="XMLID_1896_"><g id="XMLID_1897_"><g id="XMLID_1898_"><g id="XMLID_1899_"><g><path d="m512 256c0 63.12-22.85 120.91-60.72 165.54-46.96 55.34-117.02 44.874-195.28 44.874s-148.32 10.466-195.28-44.874c-37.87-44.63-60.72-102.42-60.72-165.54 0-141.38 114.62-256 256-256s256 114.62 256 256z" fill="#494949"/></g></g></g></g></g></g></g></g></g></g></g></g></g></g></g></g></g><path d="m256 466.414c78.26 0 148.32 10.466 195.28-44.874 37.87-44.63 60.72-102.42 60.72-165.54 0-10.001-.594-19.863-1.71-29.565l-170.091-170.091-195.239 233.159 34.308 31.908-118.548 100.129c46.96 55.34 117.02 44.874 195.28 44.874z" fill="#2d2d2d"/><g><path d="m367.04 289.503-11.509-97.722h-199.062l-11.509 97.722h111.037.006z" fill="#ff9d21"/><path d="m367.04 289.5h-111.04v-97.72h99.53z" fill="#ff7d47"/><path d="m201.155 243.771h109.691v116.327h-109.691z" fill="#f7b279"/><path d="m256 243.774h54.845v116.327h-54.845z" fill="#e59863"/><path d="m355.534 456.263h-199.071l32.43-139.398h136.342z" fill="#ffd4a6"/><path d="m325.235 316.865 30.302 139.394h-99.538v-139.394z" fill="#f7b279"/><g><path d="m347.305 133.251c-3.857-58.558-51.224-80.199-91.305-80.199s-87.448 21.641-91.305 80.199c-10.365 2.005-17.727 15.599-16.568 26.591l1.777 25.014c1.216 11.543 11.362 19.969 22.544 18.715l1.928-.209c22.904 61.503 58.824 67.916 81.624 71.517 22.8-3.601 58.72-10.013 81.625-71.517l1.929.209c11.181 1.254 21.328-7.172 22.544-18.715l1.776-25.014c1.158-10.991-6.204-24.586-16.569-26.591z" fill="#ffd4a6"/><path d="m363.873 159.842-1.776 25.014c-1.216 11.543-11.362 19.969-22.544 18.715l-1.929-.209c-7.828 20.995-17.167 35.578-26.98 45.809-18.924 19.742-39.624 23.333-54.644 25.708v-221.827c40.081 0 87.448 21.641 91.305 80.199 10.365 2.005 17.727 15.6 16.568 26.591z" fill="#f7b279"/><g><g><path d="m218.72 185.139h-17.216c-14.395 0-26.172-11.777-26.172-26.172 0-14.395 11.778-26.172 26.172-26.172h17.216c14.395 0 26.172 11.778 26.172 26.172 0 14.395-11.778 26.172-26.172 26.172z" fill="#fff"/></g><g><path d="m310.498 185.139h-17.216c-14.395 0-26.172-11.777-26.172-26.172 0-14.395 11.778-26.172 26.172-26.172h17.216c14.395 0 26.172 11.778 26.172 26.172 0 14.395-11.777 26.172-26.172 26.172z" fill="#f1f4f6"/></g></g><path d="m255.991 28.549c-116.324-9.413-111 108.334-111 108.334 85.932 20.446 110.587-38.867 111-40.298.413 1.432 25.067 60.744 111 40.298 0 .001 5.324-117.747-111-108.334z" fill="#ff9d21"/><path d="m366.992 136.882c-85.395 20.309-110.277-38.12-110.991-40.261v-68.075c116.31-9.402 110.991 108.336 110.991 108.336z" fill="#ff7d47"/></g><path d="m451.28 421.54c-46.96 55.34-117.02 90.46-195.28 90.46s-148.32-35.12-195.28-90.46l6.11-62.99c2.29-23.65 22.16-41.68 45.92-41.68h88.4l54.85 69.69 54.85-69.69h88.4c23.76 0 43.63 18.03 45.92 41.68z" fill="#a7fff1"/><path d="m451.28 421.54c-46.96 55.34-117.02 90.46-195.28 90.46v-125.44l54.85-69.69h88.4c23.76 0 43.63 18.03 45.92 41.68z" fill="#00e4ef"/><path d="m201.155 289.503-53.148 27.362 41.116 107.568 66.877-37.868z" fill="#ff4d05"/><path d="m310.845 289.503 53.148 27.362-41.116 107.568-66.877-37.868z" fill="#c30047"/></g></g></svg>